<?xml version="1.0" encoding="UTF-8" standalone="no"?>
<!DOCTYPE svg PUBLIC "-//W3C//DTD SVG 1.1//EN" "http://www.w3.org/Graphics/SVG/1.1/DTD/svg11.dtd">
<svg width="100%" height="100%" viewBox="0 0 627 628" version="1.1" xmlns="http://www.w3.org/2000/svg" xmlns:xlink="http://www.w3.org/1999/xlink" xml:space="preserve" xmlns:serif="http://www.serif.com/" style="fill-rule:evenodd;clip-rule:evenodd;stroke-linejoin:round;stroke-miterlimit:2;">
    <g id="Background">
        <path d="M0,330.5L0,299.5C0.081,299.021 0.922,298.923 1.004,298.444C1.157,297.543 -2.448,189.924 88.353,95.359C147.411,33.854 228.379,3.359 291.488,1.362C291.805,1.352 294.826,1.256 295.446,1.054C295.918,0.899 296.028,0.154 296.5,0L330.5,0C330.932,0.179 330.541,1.193 334.518,1.336C336.603,1.411 351.593,1.95 360.512,3.427C445.292,17.46 494.966,54.447 530.14,86.864C554.392,109.215 603.252,166.602 620.207,248.566C627.524,283.94 625.749,296.997 625.995,298.441C626.077,298.921 626.917,299.02 626.999,299.5L626.999,327.5C626.93,327.639 625.971,328.007 625.968,329.584C625.957,335.564 625.9,365.364 614.142,403.393C598.366,454.418 578.778,483.388 560.938,506.835C525.466,553.458 478.605,583.567 447.309,598.079C373.96,632.091 321.625,626.325 320.652,626.908C320.199,627.18 319.954,627.727 319.5,627.999L303.5,627.999C302.996,627.9 302.883,627.04 302.379,626.941C300.149,626.505 261.179,630.147 200.357,606.897C118.514,575.611 55.337,510.113 24.71,436.413C8.274,396.861 4.26,369.649 1.23,343.528C0.962,341.223 1.071,331.836 1.005,331.522C0.907,331.055 0.098,330.968 0,330.5ZM331.527,595.946C326.252,596.142 235.978,605.795 149.792,544.108C111.334,516.583 89.589,485.91 84.714,479.347C83.817,478.138 74.498,465.59 74.56,463.503C74.597,462.251 76.086,462.136 92.454,455.391C95.719,454.046 299.786,371.522 306.593,368.719C311.93,366.521 312.089,365.455 317.465,367.582C331.757,373.236 528.604,453.049 541.609,458.224C550.714,461.847 553.35,462.506 551.987,464.728C514.861,525.252 440.622,585.355 341.456,595.108C336.448,595.6 336.501,595.531 331.527,595.946ZM32.049,295.473C33.837,273.497 39.807,185.847 118.682,109.683C199.886,31.271 301.686,31.203 303.368,31.866C305.219,32.596 303.979,33.73 289.621,138.518C287.987,150.445 269.547,285.023 268.541,287.518C268.266,288.199 265.601,290.628 209.843,333.921C168.494,366.027 168.748,366.289 165.141,369.06C135.383,391.924 66.619,446.554 65.512,446.615C64.312,446.681 61.939,441.858 61.71,441.395C31.724,380.482 30.173,331.186 32.049,295.473ZM594.955,295.474C596.811,333.267 594.793,383.206 563.995,443.752C560.894,449.848 559.288,445.14 553.865,441.025C543.206,432.937 543.372,432.737 422.199,337.894C419.026,335.411 419.074,335.419 415.855,333.025C411.374,329.692 411.92,329.018 360.862,290.029C357.427,287.406 358.386,286.597 353.293,251.532C351.887,241.858 325.752,55.561 323.361,38.52C323.295,38.052 322.597,33.074 322.845,32.633C323.168,32.057 323.329,31.103 342.449,32.957C465.39,44.876 584.244,144.825 594.955,295.474Z" style="fill:rgb(6,8,7);"/>
    </g>
</svg>
